<svg xmlns="http://www.w3.org/2000/svg" xmlns:xlink="http://www.w3.org/1999/xlink" contentStyleType="text/css" height="858px" preserveAspectRatio="none" style="width:3180px;height:858px;background:#FFFFFF;" version="1.1" viewBox="0 0 3180 858" width="3180px" zoomAndPan="magnify"><defs/><g><!--cluster FixedWindow--><g id="cluster_FixedWindow"><path d="M8.5,284.78 L214.4277,284.78 A3.75,3.75 0 0 1 216.9277,287.28 L223.9277,323.3738 L1010.5,323.3738 A2.5,2.5 0 0 1 1013,325.8738 L1013,848.56 A2.5,2.5 0 0 1 1010.5,851.06 L8.5,851.06 A2.5,2.5 0 0 1 6,848.56 L6,287.28 A2.5,2.5 0 0 1 8.5,284.78 " fill="none" style="stroke:#000000;stroke-width:1.5;"/><line style="stroke:#000000;stroke-width:1.5;" x1="6" x2="223.9277" y1="323.3738" y2="323.3738"/><text fill="#000000" font-family="sans-serif" font-size="14" font-weight="bold" lengthAdjust="spacing" textLength="105.6904" x="59.6187" y="299.7751">FixedWindow</text><text fill="#000000" font-family="sans-serif" font-size="14" font-weight="bold" lengthAdjust="spacing" textLength="204.9277" x="10" y="316.072">Fixed Window rate limiter</text></g><!--cluster LeakyBucket--><g id="cluster_LeakyBucket"><path d="M1055.5,284.78 L1256.4717,284.78 A3.75,3.75 0 0 1 1258.9717,287.28 L1265.9717,323.3738 L2123.5,323.3738 A2.5,2.5 0 0 1 2126,325.8738 L2126,848.56 A2.5,2.5 0 0 1 2123.5,851.06 L1055.5,851.06 A2.5,2.5 0 0 1 1053,848.56 L1053,287.28 A2.5,2.5 0 0 1 1055.5,284.78 " fill="none" style="stroke:#000000;stroke-width:1.5;"/><line style="stroke:#000000;stroke-width:1.5;" x1="1053" x2="1265.9717" y1="323.3738" y2="323.3738"/><text fill="#000000" font-family="sans-serif" font-size="14" font-weight="bold" lengthAdjust="spacing" textLength="100.7344" x="1106.6187" y="299.7751">LeakyBucket</text><text fill="#000000" font-family="sans-serif" font-size="14" font-weight="bold" lengthAdjust="spacing" textLength="199.9717" x="1057" y="316.072">Leaky Bucket rate limiter</text></g><!--cluster SlidingWindow--><g id="cluster_SlidingWindow"><path d="M2168.5,284.78 L2386.0078,284.78 A3.75,3.75 0 0 1 2388.5078,287.28 L2395.5078,323.3738 L3170.5,323.3738 A2.5,2.5 0 0 1 3173,325.8738 L3173,848.56 A2.5,2.5 0 0 1 3170.5,851.06 L2168.5,851.06 A2.5,2.5 0 0 1 2166,848.56 L2166,287.28 A2.5,2.5 0 0 1 2168.5,284.78 " fill="none" style="stroke:#000000;stroke-width:1.5;"/><line style="stroke:#000000;stroke-width:1.5;" x1="2166" x2="2395.5078" y1="323.3738" y2="323.3738"/><text fill="#000000" font-family="sans-serif" font-size="14" font-weight="bold" lengthAdjust="spacing" textLength="117.2705" x="2219.6187" y="299.7751">SlidingWindow</text><text fill="#000000" font-family="sans-serif" font-size="14" font-weight="bold" lengthAdjust="spacing" textLength="216.5078" x="2170" y="316.072">Sliding Window rate limiter</text></g><!--class FixedWindow_StorageInterface--><g id="elem_FixedWindow_StorageInterface"><rect codeLine="45" fill="#F1F1F1" height="107.4844" id="FixedWindow_StorageInterface" rx="2.5" ry="2.5" style="stroke:#181818;stroke-width:0.5;" width="539.2129" x="449.39" y="519.5"/><ellipse cx="464.39" cy="540.7969" fill="#B4A7E5" rx="11" ry="11" style="stroke:#181818;stroke-width:1.0;"/><path d="M460.3119,536.5625 L460.3119,534.4063 L467.7025,534.4063 L467.7025,536.5625 L465.2338,536.5625 L465.2338,544.6406 L467.7025,544.6406 L467.7025,546.7969 L460.3119,546.7969 L460.3119,544.6406 L462.7806,544.6406 L462.7806,536.5625 L460.3119,536.5625 Z " fill="#000000"/><text fill="#000000" font-family="sans-serif" font-size="14" font-style="italic" lengthAdjust="spacing" textLength="117.4551" x="673.2689" y="537.4951">StorageInterface</text><text fill="#000000" font-family="sans-serif" font-size="14" font-style="italic" font-weight="bold" lengthAdjust="spacing" textLength="507.2129" x="478.39" y="553.792">Interface for storage classes used in the FixedWindow strategy.</text><line style="stroke:#181818;stroke-width:0.5;" x1="450.39" x2="987.6029" y1="562.0938" y2="562.0938"/><line style="stroke:#181818;stroke-width:0.5;" x1="450.39" x2="987.6029" y1="570.0938" y2="570.0938"/><ellipse cx="460.39" cy="583.7422" fill="#84BE84" rx="3" ry="3" style="stroke:#038048;stroke-width:1.0;"/><text fill="#000000" font-family="sans-serif" font-size="14" lengthAdjust="spacing" textLength="62.1455" x="469.39" y="587.0889">incr(key)</text><ellipse cx="460.39" cy="600.0391" fill="#84BE84" rx="3" ry="3" style="stroke:#038048;stroke-width:1.0;"/><text fill="#000000" font-family="sans-serif" font-size="14" lengthAdjust="spacing" textLength="133.8887" x="469.39" y="603.3857">getRemaining(key)</text><ellipse cx="460.39" cy="616.3359" fill="#84BE84" rx="3" ry="3" style="stroke:#038048;stroke-width:1.0;"/><text fill="#000000" font-family="sans-serif" font-size="14" lengthAdjust="spacing" textLength="70.4648" x="469.39" y="619.6826">clear(key)</text></g><!--class FixedWindow_RedisStorage--><g id="elem_FixedWindow_RedisStorage"><rect codeLine="50" fill="#F1F1F1" height="140.0781" id="FixedWindow_RedisStorage" rx="2.5" ry="2.5" style="stroke:#181818;stroke-width:0.5;" width="441.4453" x="30.28" y="686.98"/><ellipse cx="45.28" cy="708.2769" fill="#ADD1B2" rx="11" ry="11" style="stroke:#181818;stroke-width:1.0;"/><path d="M48.2488,713.9175 Q47.6706,714.2144 47.03,714.355 Q46.3894,714.5112 45.6863,714.5112 Q43.1863,714.5112 41.8581,712.8706 Q40.5456,711.2144 40.5456,708.0894 Q40.5456,704.9644 41.8581,703.3081 Q43.1863,701.6519 45.6863,701.6519 Q46.3894,701.6519 47.03,701.8081 Q47.6863,701.9644 48.2488,702.2612 L48.2488,704.98 Q47.6238,704.4019 47.03,704.1362 Q46.4363,703.855 45.8113,703.855 Q44.4675,703.855 43.78,704.9331 Q43.0925,705.9956 43.0925,708.0894 Q43.0925,710.1831 43.78,711.2612 Q44.4675,712.3237 45.8113,712.3237 Q46.4363,712.3237 47.03,712.0581 Q47.6238,711.7769 48.2488,711.1987 L48.2488,713.9175 Z " fill="#000000"/><text fill="#000000" font-family="sans-serif" font-size="14" lengthAdjust="spacing" textLength="93.1875" x="217.4089" y="704.9751">RedisStorage</text><text fill="#000000" font-family="sans-serif" font-size="14" font-weight="bold" lengthAdjust="spacing" textLength="409.4453" x="59.28" y="721.272">Implements the StorageInterface for Redis storage.</text><line style="stroke:#181818;stroke-width:0.5;" x1="31.28" x2="470.7253" y1="729.5737" y2="729.5737"/><ellipse cx="41.28" cy="743.2222" fill="none" rx="3" ry="3" style="stroke:#038048;stroke-width:1.0;"/><text fill="#000000" font-family="sans-serif" font-size="14" lengthAdjust="spacing" textLength="86.4678" x="50.28" y="746.5689">redis : Redis</text><line style="stroke:#181818;stroke-width:0.5;" x1="31.28" x2="470.7253" y1="753.8706" y2="753.8706"/><ellipse cx="41.28" cy="767.5191" fill="#84BE84" rx="3" ry="3" style="stroke:#038048;stroke-width:1.0;"/><text fill="#000000" font-family="sans-serif" font-size="14" lengthAdjust="spacing" textLength="125.0977" x="50.28" y="770.8657">__construct(redis)</text><ellipse cx="41.28" cy="783.8159" fill="#84BE84" rx="3" ry="3" style="stroke:#038048;stroke-width:1.0;"/><text fill="#000000" font-family="sans-serif" font-size="14" lengthAdjust="spacing" textLength="62.1455" x="50.28" y="787.1626">incr(key)</text><ellipse cx="41.28" cy="800.1128" fill="#84BE84" rx="3" ry="3" style="stroke:#038048;stroke-width:1.0;"/><text fill="#000000" font-family="sans-serif" font-size="14" lengthAdjust="spacing" textLength="133.8887" x="50.28" y="803.4595">getRemaining(key)</text><ellipse cx="41.28" cy="816.4097" fill="#84BE84" rx="3" ry="3" style="stroke:#038048;stroke-width:1.0;"/><text fill="#000000" font-family="sans-serif" font-size="14" lengthAdjust="spacing" textLength="70.4648" x="50.28" y="819.7564">clear(key)</text></g><!--class FixedWindow_MemoryStorage--><g id="elem_FixedWindow_MemoryStorage"><rect codeLine="57" fill="#F1F1F1" height="123.7813" id="FixedWindow_MemoryStorage" rx="2.5" ry="2.5" style="stroke:#181818;stroke-width:0.5;" width="482.9121" x="506.54" y="695.13"/><ellipse cx="521.54" cy="716.4269" fill="#ADD1B2" rx="11" ry="11" style="stroke:#181818;stroke-width:1.0;"/><path d="M524.5088,722.0675 Q523.9306,722.3644 523.29,722.505 Q522.6494,722.6612 521.9463,722.6612 Q519.4463,722.6612 518.1181,721.0206 Q516.8056,719.3644 516.8056,716.2394 Q516.8056,713.1144 518.1181,711.4581 Q519.4463,709.8019 521.9463,709.8019 Q522.6494,709.8019 523.29,709.9581 Q523.9463,710.1144 524.5088,710.4112 L524.5088,713.13 Q523.8838,712.5519 523.29,712.2862 Q522.6963,712.005 522.0713,712.005 Q520.7275,712.005 520.04,713.0831 Q519.3525,714.1456 519.3525,716.2394 Q519.3525,718.3331 520.04,719.4112 Q520.7275,720.4737 522.0713,720.4737 Q522.6963,720.4737 523.29,720.2081 Q523.8838,719.9269 524.5088,719.3487 L524.5088,722.0675 Z " fill="#000000"/><text fill="#000000" font-family="sans-serif" font-size="14" lengthAdjust="spacing" textLength="111.7129" x="705.1396" y="713.1251">MemoryStorage</text><text fill="#000000" font-family="sans-serif" font-size="14" font-weight="bold" lengthAdjust="spacing" textLength="450.9121" x="535.54" y="729.422">Implements the StorageInterface for in-memory storage.</text><line style="stroke:#181818;stroke-width:0.5;" x1="507.54" x2="988.4521" y1="737.7237" y2="737.7237"/><polygon fill="none" points="517.54,746.3722,521.54,750.3722,517.54,754.3722,513.54,750.3722" style="stroke:#B38D22;stroke-width:1.0;"/><text fill="#000000" font-family="sans-serif" font-size="14" lengthAdjust="spacing" textLength="123.8193" x="526.54" y="754.7189">data : array&lt;int&gt;</text><line style="stroke:#181818;stroke-width:0.5;" x1="507.54" x2="988.4521" y1="762.0206" y2="762.0206"/><ellipse cx="517.54" cy="775.6691" fill="#84BE84" rx="3" ry="3" style="stroke:#038048;stroke-width:1.0;"/><text fill="#000000" font-family="sans-serif" font-size="14" lengthAdjust="spacing" textLength="62.1455" x="526.54" y="779.0157">incr(key)</text><ellipse cx="517.54" cy="791.9659" fill="#84BE84" rx="3" ry="3" style="stroke:#038048;stroke-width:1.0;"/><text fill="#000000" font-family="sans-serif" font-size="14" lengthAdjust="spacing" textLength="133.8887" x="526.54" y="795.3126">getRemaining(key)</text><ellipse cx="517.54" cy="808.2628" fill="#84BE84" rx="3" ry="3" style="stroke:#038048;stroke-width:1.0;"/><text fill="#000000" font-family="sans-serif" font-size="14" lengthAdjust="spacing" textLength="70.4648" x="526.54" y="811.6095">clear(key)</text></g><!--class LeakyBucket_StorageInterface--><g id="elem_LeakyBucket_StorageInterface"><rect codeLine="86" fill="#F1F1F1" height="107.4844" id="LeakyBucket_StorageInterface" rx="2.5" ry="2.5" style="stroke:#181818;stroke-width:0.5;" width="534.2568" x="1321.87" y="519.5"/><ellipse cx="1336.87" cy="540.7969" fill="#B4A7E5" rx="11" ry="11" style="stroke:#181818;stroke-width:1.0;"/><path d="M1332.7919,536.5625 L1332.7919,534.4063 L1340.1825,534.4063 L1340.1825,536.5625 L1337.7138,536.5625 L1337.7138,544.6406 L1340.1825,544.6406 L1340.1825,546.7969 L1332.7919,546.7969 L1332.7919,544.6406 L1335.2606,544.6406 L1335.2606,536.5625 L1332.7919,536.5625 Z " fill="#000000"/><text fill="#000000" font-family="sans-serif" font-size="14" font-style="italic" lengthAdjust="spacing" textLength="117.4551" x="1543.2709" y="537.4951">StorageInterface</text><text fill="#000000" font-family="sans-serif" font-size="14" font-style="italic" font-weight="bold" lengthAdjust="spacing" textLength="502.2568" x="1350.87" y="553.792">Interface for storage classes used in the LeakyBucket strategy.</text><line style="stroke:#181818;stroke-width:0.5;" x1="1322.87" x2="1855.1268" y1="562.0938" y2="562.0938"/><line style="stroke:#181818;stroke-width:0.5;" x1="1322.87" x2="1855.1268" y1="570.0938" y2="570.0938"/><ellipse cx="1332.87" cy="583.7422" fill="#84BE84" rx="3" ry="3" style="stroke:#038048;stroke-width:1.0;"/><text fill="#000000" font-family="sans-serif" font-size="14" lengthAdjust="spacing" textLength="169.1484" x="1341.87" y="587.0889">attempt(key, limit, rate)</text><ellipse cx="1332.87" cy="600.0391" fill="#84BE84" rx="3" ry="3" style="stroke:#038048;stroke-width:1.0;"/><text fill="#000000" font-family="sans-serif" font-size="14" lengthAdjust="spacing" textLength="210.9229" x="1341.87" y="603.3857">getRemaining(key, limit, rate)</text><ellipse cx="1332.87" cy="616.3359" fill="#84BE84" rx="3" ry="3" style="stroke:#038048;stroke-width:1.0;"/><text fill="#000000" font-family="sans-serif" font-size="14" lengthAdjust="spacing" textLength="70.4648" x="1341.87" y="619.6826">clear(key)</text></g><!--class LeakyBucket_RedisStorage--><g id="elem_LeakyBucket_RedisStorage"><rect codeLine="91" fill="#F1F1F1" height="140.0781" id="LeakyBucket_RedisStorage" rx="2.5" ry="2.5" style="stroke:#181818;stroke-width:0.5;" width="473.8066" x="1077.1" y="686.98"/><ellipse cx="1092.1" cy="708.2769" fill="#ADD1B2" rx="11" ry="11" style="stroke:#181818;stroke-width:1.0;"/><path d="M1095.0688,713.9175 Q1094.4906,714.2144 1093.85,714.355 Q1093.2094,714.5112 1092.5063,714.5112 Q1090.0063,714.5112 1088.6781,712.8706 Q1087.3656,711.2144 1087.3656,708.0894 Q1087.3656,704.9644 1088.6781,703.3081 Q1090.0063,701.6519 1092.5063,701.6519 Q1093.2094,701.6519 1093.85,701.8081 Q1094.5063,701.9644 1095.0688,702.2612 L1095.0688,704.98 Q1094.4438,704.4019 1093.85,704.1362 Q1093.2563,703.855 1092.6313,703.855 Q1091.2875,703.855 1090.6,704.9331 Q1089.9125,705.9956 1089.9125,708.0894 Q1089.9125,710.1831 1090.6,711.2612 Q1091.2875,712.3237 1092.6313,712.3237 Q1093.2563,712.3237 1093.85,712.0581 Q1094.4438,711.7769 1095.0688,711.1987 L1095.0688,713.9175 Z " fill="#000000"/><text fill="#000000" font-family="sans-serif" font-size="14" lengthAdjust="spacing" textLength="93.1875" x="1280.4096" y="704.9751">RedisStorage</text><text fill="#000000" font-family="sans-serif" font-size="14" font-weight="bold" lengthAdjust="spacing" textLength="441.8066" x="1106.1" y="721.272">Implements the leaky bucket storage for Redis storage.</text><line style="stroke:#181818;stroke-width:0.5;" x1="1078.1" x2="1549.9066" y1="729.5737" y2="729.5737"/><ellipse cx="1088.1" cy="743.2222" fill="none" rx="3" ry="3" style="stroke:#038048;stroke-width:1.0;"/><text fill="#000000" font-family="sans-serif" font-size="14" lengthAdjust="spacing" textLength="86.4678" x="1097.1" y="746.5689">redis : Redis</text><line style="stroke:#181818;stroke-width:0.5;" x1="1078.1" x2="1549.9066" y1="753.8706" y2="753.8706"/><ellipse cx="1088.1" cy="767.5191" fill="#84BE84" rx="3" ry="3" style="stroke:#038048;stroke-width:1.0;"/><text fill="#000000" font-family="sans-serif" font-size="14" lengthAdjust="spacing" textLength="125.0977" x="1097.1" y="770.8657">__construct(redis)</text><ellipse cx="1088.1" cy="783.8159" fill="#84BE84" rx="3" ry="3" style="stroke:#038048;stroke-width:1.0;"/><text fill="#000000" font-family="sans-serif" font-size="14" lengthAdjust="spacing" textLength="169.1484" x="1097.1" y="787.1626">attempt(key, limit, rate)</text><ellipse cx="1088.1" cy="800.1128" fill="#84BE84" rx="3" ry="3" style="stroke:#038048;stroke-width:1.0;"/><text fill="#000000" font-family="sans-serif" font-size="14" lengthAdjust="spacing" textLength="210.9229" x="1097.1" y="803.4595">getRemaining(key, limit, rate)</text><ellipse cx="1088.1" cy="816.4097" fill="#84BE84" rx="3" ry="3" style="stroke:#038048;stroke-width:1.0;"/><text fill="#000000" font-family="sans-serif" font-size="14" lengthAdjust="spacing" textLength="70.4648" x="1097.1" y="819.7564">clear(key)</text></g><!--class LeakyBucket_MemoryStorage--><g id="elem_LeakyBucket_MemoryStorage"><rect codeLine="98" fill="#F1F1F1" height="123.7813" id="LeakyBucket_MemoryStorage" rx="2.5" ry="2.5" style="stroke:#181818;stroke-width:0.5;" width="515.2734" x="1586.36" y="695.13"/><ellipse cx="1601.36" cy="716.4269" fill="#ADD1B2" rx="11" ry="11" style="stroke:#181818;stroke-width:1.0;"/><path d="M1604.3288,722.0675 Q1603.7506,722.3644 1603.11,722.505 Q1602.4694,722.6612 1601.7663,722.6612 Q1599.2663,722.6612 1597.9381,721.0206 Q1596.6256,719.3644 1596.6256,716.2394 Q1596.6256,713.1144 1597.9381,711.4581 Q1599.2663,709.8019 1601.7663,709.8019 Q1602.4694,709.8019 1603.11,709.9581 Q1603.7663,710.1144 1604.3288,710.4112 L1604.3288,713.13 Q1603.7038,712.5519 1603.11,712.2862 Q1602.5163,712.005 1601.8913,712.005 Q1600.5475,712.005 1599.86,713.0831 Q1599.1725,714.1456 1599.1725,716.2394 Q1599.1725,718.3331 1599.86,719.4112 Q1600.5475,720.4737 1601.8913,720.4737 Q1602.5163,720.4737 1603.11,720.2081 Q1603.7038,719.9269 1604.3288,719.3487 L1604.3288,722.0675 Z " fill="#000000"/><text fill="#000000" font-family="sans-serif" font-size="14" lengthAdjust="spacing" textLength="111.7129" x="1801.1403" y="713.1251">MemoryStorage</text><text fill="#000000" font-family="sans-serif" font-size="14" font-weight="bold" lengthAdjust="spacing" textLength="483.2734" x="1615.36" y="729.422">Implements the leaky bucket storage for in-memory storage.</text><line style="stroke:#181818;stroke-width:0.5;" x1="1587.36" x2="2100.6334" y1="737.7237" y2="737.7237"/><polygon fill="none" points="1597.36,746.3722,1601.36,750.3722,1597.36,754.3722,1593.36,750.3722" style="stroke:#B38D22;stroke-width:1.0;"/><text fill="#000000" font-family="sans-serif" font-size="14" lengthAdjust="spacing" textLength="148.8799" x="1606.36" y="754.7189">data : array&lt;mixed&gt;</text><line style="stroke:#181818;stroke-width:0.5;" x1="1587.36" x2="2100.6334" y1="762.0206" y2="762.0206"/><ellipse cx="1597.36" cy="775.6691" fill="#84BE84" rx="3" ry="3" style="stroke:#038048;stroke-width:1.0;"/><text fill="#000000" font-family="sans-serif" font-size="14" lengthAdjust="spacing" textLength="169.1484" x="1606.36" y="779.0157">attempt(key, limit, rate)</text><ellipse cx="1597.36" cy="791.9659" fill="#84BE84" rx="3" ry="3" style="stroke:#038048;stroke-width:1.0;"/><text fill="#000000" font-family="sans-serif" font-size="14" lengthAdjust="spacing" textLength="210.9229" x="1606.36" y="795.3126">getRemaining(key, limit, rate)</text><ellipse cx="1597.36" cy="808.2628" fill="#84BE84" rx="3" ry="3" style="stroke:#038048;stroke-width:1.0;"/><text fill="#000000" font-family="sans-serif" font-size="14" lengthAdjust="spacing" textLength="70.4648" x="1606.36" y="811.6095">clear(key)</text></g><!--class SlidingWindow_StorageInterface--><g id="elem_SlidingWindow_StorageInterface"><rect codeLine="65" fill="#F1F1F1" height="107.4844" id="SlidingWindow_StorageInterface" rx="2.5" ry="2.5" style="stroke:#181818;stroke-width:0.5;" width="550.793" x="2189.6" y="519.5"/><ellipse cx="2204.6" cy="540.7969" fill="#B4A7E5" rx="11" ry="11" style="stroke:#181818;stroke-width:1.0;"/><path d="M2200.5219,536.5625 L2200.5219,534.4063 L2207.9125,534.4063 L2207.9125,536.5625 L2205.4438,536.5625 L2205.4438,544.6406 L2207.9125,544.6406 L2207.9125,546.7969 L2200.5219,546.7969 L2200.5219,544.6406 L2202.9906,544.6406 L2202.9906,536.5625 L2200.5219,536.5625 Z " fill="#000000"/><text fill="#000000" font-family="sans-serif" font-size="14" font-style="italic" lengthAdjust="spacing" textLength="117.4551" x="2419.2689" y="537.4951">StorageInterface</text><text fill="#000000" font-family="sans-serif" font-size="14" font-style="italic" font-weight="bold" lengthAdjust="spacing" textLength="518.793" x="2218.6" y="553.792">Interface for storage classes used in the SlidingWindow strategy.</text><line style="stroke:#181818;stroke-width:0.5;" x1="2190.6" x2="2739.393" y1="562.0938" y2="562.0938"/><line style="stroke:#181818;stroke-width:0.5;" x1="2190.6" x2="2739.393" y1="570.0938" y2="570.0938"/><ellipse cx="2200.6" cy="583.7422" fill="#84BE84" rx="3" ry="3" style="stroke:#038048;stroke-width:1.0;"/><text fill="#000000" font-family="sans-serif" font-size="14" lengthAdjust="spacing" textLength="222.5645" x="2209.6" y="587.0889">attempt(key, limit, windowSize)</text><ellipse cx="2200.6" cy="600.0391" fill="#84BE84" rx="3" ry="3" style="stroke:#038048;stroke-width:1.0;"/><text fill="#000000" font-family="sans-serif" font-size="14" lengthAdjust="spacing" textLength="224.6426" x="2209.6" y="603.3857">getRemaining(key, windowSize)</text><ellipse cx="2200.6" cy="616.3359" fill="#84BE84" rx="3" ry="3" style="stroke:#038048;stroke-width:1.0;"/><text fill="#000000" font-family="sans-serif" font-size="14" lengthAdjust="spacing" textLength="70.4648" x="2209.6" y="619.6826">clear(key)</text></g><!--class SlidingWindow_RedisStorage--><g id="elem_SlidingWindow_RedisStorage"><rect codeLine="70" fill="#F1F1F1" height="140.0781" id="SlidingWindow_RedisStorage" rx="2.5" ry="2.5" style="stroke:#181818;stroke-width:0.5;" width="441.4453" x="2190.28" y="686.98"/><ellipse cx="2205.28" cy="708.2769" fill="#ADD1B2" rx="11" ry="11" style="stroke:#181818;stroke-width:1.0;"/><path d="M2208.2488,713.9175 Q2207.6706,714.2144 2207.03,714.355 Q2206.3894,714.5112 2205.6863,714.5112 Q2203.1863,714.5112 2201.8581,712.8706 Q2200.5456,711.2144 2200.5456,708.0894 Q2200.5456,704.9644 2201.8581,703.3081 Q2203.1863,701.6519 2205.6863,701.6519 Q2206.3894,701.6519 2207.03,701.8081 Q2207.6863,701.9644 2208.2488,702.2612 L2208.2488,704.98 Q2207.6238,704.4019 2207.03,704.1362 Q2206.4363,703.855 2205.8113,703.855 Q2204.4675,703.855 2203.78,704.9331 Q2203.0925,705.9956 2203.0925,708.0894 Q2203.0925,710.1831 2203.78,711.2612 Q2204.4675,712.3237 2205.8113,712.3237 Q2206.4363,712.3237 2207.03,712.0581 Q2207.6238,711.7769 2208.2488,711.1987 L2208.2488,713.9175 Z " fill="#000000"/><text fill="#000000" font-family="sans-serif" font-size="14" lengthAdjust="spacing" textLength="93.1875" x="2377.4089" y="704.9751">RedisStorage</text><text fill="#000000" font-family="sans-serif" font-size="14" font-weight="bold" lengthAdjust="spacing" textLength="409.4453" x="2219.28" y="721.272">Implements the StorageInterface for Redis storage.</text><line style="stroke:#181818;stroke-width:0.5;" x1="2191.28" x2="2630.7253" y1="729.5737" y2="729.5737"/><ellipse cx="2201.28" cy="743.2222" fill="none" rx="3" ry="3" style="stroke:#038048;stroke-width:1.0;"/><text fill="#000000" font-family="sans-serif" font-size="14" lengthAdjust="spacing" textLength="86.4678" x="2210.28" y="746.5689">redis : Redis</text><line style="stroke:#181818;stroke-width:0.5;" x1="2191.28" x2="2630.7253" y1="753.8706" y2="753.8706"/><ellipse cx="2201.28" cy="767.5191" fill="#84BE84" rx="3" ry="3" style="stroke:#038048;stroke-width:1.0;"/><text fill="#000000" font-family="sans-serif" font-size="14" lengthAdjust="spacing" textLength="125.0977" x="2210.28" y="770.8657">__construct(redis)</text><ellipse cx="2201.28" cy="783.8159" fill="#84BE84" rx="3" ry="3" style="stroke:#038048;stroke-width:1.0;"/><text fill="#000000" font-family="sans-serif" font-size="14" lengthAdjust="spacing" textLength="222.5645" x="2210.28" y="787.1626">attempt(key, limit, windowSize)</text><ellipse cx="2201.28" cy="800.1128" fill="#84BE84" rx="3" ry="3" style="stroke:#038048;stroke-width:1.0;"/><text fill="#000000" font-family="sans-serif" font-size="14" lengthAdjust="spacing" textLength="224.6426" x="2210.28" y="803.4595">getRemaining(key, windowSize)</text><ellipse cx="2201.28" cy="816.4097" fill="#84BE84" rx="3" ry="3" style="stroke:#038048;stroke-width:1.0;"/><text fill="#000000" font-family="sans-serif" font-size="14" lengthAdjust="spacing" textLength="70.4648" x="2210.28" y="819.7564">clear(key)</text></g><!--class SlidingWindow_MemoryStorage--><g id="elem_SlidingWindow_MemoryStorage"><rect codeLine="77" fill="#F1F1F1" height="140.0781" id="SlidingWindow_MemoryStorage" rx="2.5" ry="2.5" style="stroke:#181818;stroke-width:0.5;" width="482.9121" x="2666.54" y="686.98"/><ellipse cx="2681.54" cy="708.2769" fill="#ADD1B2" rx="11" ry="11" style="stroke:#181818;stroke-width:1.0;"/><path d="M2684.5088,713.9175 Q2683.9306,714.2144 2683.29,714.355 Q2682.6494,714.5112 2681.9463,714.5112 Q2679.4463,714.5112 2678.1181,712.8706 Q2676.8056,711.2144 2676.8056,708.0894 Q2676.8056,704.9644 2678.1181,703.3081 Q2679.4463,701.6519 2681.9463,701.6519 Q2682.6494,701.6519 2683.29,701.8081 Q2683.9463,701.9644 2684.5088,702.2612 L2684.5088,704.98 Q2683.8838,704.4019 2683.29,704.1362 Q2682.6963,703.855 2682.0713,703.855 Q2680.7275,703.855 2680.04,704.9331 Q2679.3525,705.9956 2679.3525,708.0894 Q2679.3525,710.1831 2680.04,711.2612 Q2680.7275,712.3237 2682.0713,712.3237 Q2682.6963,712.3237 2683.29,712.0581 Q2683.8838,711.7769 2684.5088,711.1987 L2684.5088,713.9175 Z " fill="#000000"/><text fill="#000000" font-family="sans-serif" font-size="14" lengthAdjust="spacing" textLength="111.7129" x="2865.1396" y="704.9751">MemoryStorage</text><text fill="#000000" font-family="sans-serif" font-size="14" font-weight="bold" lengthAdjust="spacing" textLength="450.9121" x="2695.54" y="721.272">Implements the StorageInterface for in-memory storage.</text><line style="stroke:#181818;stroke-width:0.5;" x1="2667.54" x2="3148.4521" y1="729.5737" y2="729.5737"/><polygon fill="none" points="2677.54,738.2222,2681.54,742.2222,2677.54,746.2222,2673.54,742.2222" style="stroke:#B38D22;stroke-width:1.0;"/><text fill="#000000" font-family="sans-serif" font-size="14" lengthAdjust="spacing" textLength="184.2354" x="2686.54" y="746.5689">data : array&lt;array&lt;int&gt;&gt;</text><line style="stroke:#181818;stroke-width:0.5;" x1="2667.54" x2="3148.4521" y1="753.8706" y2="753.8706"/><ellipse cx="2677.54" cy="767.5191" fill="#84BE84" rx="3" ry="3" style="stroke:#038048;stroke-width:1.0;"/><text fill="#000000" font-family="sans-serif" font-size="14" lengthAdjust="spacing" textLength="222.5645" x="2686.54" y="770.8657">attempt(key, limit, windowSize)</text><ellipse cx="2677.54" cy="783.8159" fill="#84BE84" rx="3" ry="3" style="stroke:#038048;stroke-width:1.0;"/><text fill="#000000" font-family="sans-serif" font-size="14" lengthAdjust="spacing" textLength="224.6426" x="2686.54" y="787.1626">getRemaining(key, windowSize)</text><ellipse cx="2677.54" cy="800.1128" fill="#84BE84" rx="3" ry="3" style="stroke:#038048;stroke-width:1.0;"/><text fill="#000000" font-family="sans-serif" font-size="14" lengthAdjust="spacing" textLength="70.4648" x="2686.54" y="803.4595">clear(key)</text><polygon fill="#FFFF44" points="2677.54,811.4097,2681.54,815.4097,2677.54,819.4097,2673.54,815.4097" style="stroke:#B38D22;stroke-width:1.0;"/><text fill="#000000" font-family="sans-serif" font-size="14" lengthAdjust="spacing" textLength="212.4131" x="2686.54" y="819.7564">filterExpired(key, windowSize)</text></g><!--class RateLimiterInterface--><g id="elem_RateLimiterInterface"><rect codeLine="1" fill="#F1F1F1" height="96.8906" id="RateLimiterInterface" rx="2.5" ry="2.5" style="stroke:#181818;stroke-width:0.5;" width="199.585" x="1489.21" y="7"/><ellipse cx="1514.7498" cy="23" fill="#B4A7E5" rx="11" ry="11" style="stroke:#181818;stroke-width:1.0;"/><path d="M1510.6717,18.7656 L1510.6717,16.6094 L1518.0623,16.6094 L1518.0623,18.7656 L1515.5936,18.7656 L1515.5936,26.8438 L1518.0623,26.8438 L1518.0623,29 L1510.6717,29 L1510.6717,26.8438 L1513.1405,26.8438 L1513.1405,18.7656 L1510.6717,18.7656 Z " fill="#000000"/><text fill="#000000" font-family="sans-serif" font-size="14" font-style="italic" lengthAdjust="spacing" textLength="144.1631" x="1531.092" y="27.8467">RateLimiterInterface</text><line style="stroke:#181818;stroke-width:0.5;" x1="1490.21" x2="1687.795" y1="39" y2="39"/><line style="stroke:#181818;stroke-width:0.5;" x1="1490.21" x2="1687.795" y1="47" y2="47"/><ellipse cx="1500.21" cy="60.6484" fill="#84BE84" rx="3" ry="3" style="stroke:#038048;stroke-width:1.0;"/><text fill="#000000" font-family="sans-serif" font-size="14" lengthAdjust="spacing" textLength="131.8105" x="1509.21" y="63.9951">attempt(key, limit)</text><ellipse cx="1500.21" cy="76.9453" fill="#84BE84" rx="3" ry="3" style="stroke:#038048;stroke-width:1.0;"/><text fill="#000000" font-family="sans-serif" font-size="14" lengthAdjust="spacing" textLength="173.585" x="1509.21" y="80.292">getRemaining(key, limit)</text><ellipse cx="1500.21" cy="93.2422" fill="#84BE84" rx="3" ry="3" style="stroke:#038048;stroke-width:1.0;"/><text fill="#000000" font-family="sans-serif" font-size="14" lengthAdjust="spacing" textLength="70.4648" x="1509.21" y="96.5889">clear(key)</text></g><!--class AbstractRateLimiter--><g id="elem_AbstractRateLimiter"><rect codeLine="39" fill="#F1F1F1" height="96.8906" id="AbstractRateLimiter" rx="2.5" ry="2.5" style="stroke:#181818;stroke-width:0.5;" width="172.2529" x="1502.87" y="163.89"/><ellipse cx="1517.87" cy="179.89" fill="#ADD1B2" rx="11" ry="11" style="stroke:#181818;stroke-width:1.0;"/><path d="M1520.8388,185.5306 Q1520.2606,185.8275 1519.62,185.9681 Q1518.9794,186.1244 1518.2763,186.1244 Q1515.7763,186.1244 1514.4481,184.4838 Q1513.1356,182.8275 1513.1356,179.7025 Q1513.1356,176.5775 1514.4481,174.9213 Q1515.7763,173.265 1518.2763,173.265 Q1518.9794,173.265 1519.62,173.4213 Q1520.2763,173.5775 1520.8388,173.8744 L1520.8388,176.5931 Q1520.2138,176.015 1519.62,175.7494 Q1519.0263,175.4681 1518.4013,175.4681 Q1517.0575,175.4681 1516.37,176.5463 Q1515.6825,177.6088 1515.6825,179.7025 Q1515.6825,181.7963 1516.37,182.8744 Q1517.0575,183.9369 1518.4013,183.9369 Q1519.0263,183.9369 1519.62,183.6713 Q1520.2138,183.39 1520.8388,182.8119 L1520.8388,185.5306 Z " fill="#000000"/><text fill="#000000" font-family="sans-serif" font-size="14" lengthAdjust="spacing" textLength="140.2529" x="1531.87" y="184.7367">AbstractRateLimiter</text><line style="stroke:#181818;stroke-width:0.5;" x1="1503.87" x2="1674.1229" y1="195.89" y2="195.89"/><polygon fill="none" points="1513.87,204.5384,1517.87,208.5384,1513.87,212.5384,1509.87,208.5384" style="stroke:#B38D22;stroke-width:1.0;"/><text fill="#000000" font-family="sans-serif" font-size="14" lengthAdjust="spacing" textLength="70.0957" x="1522.87" y="212.8851">limit : ?int</text><line style="stroke:#181818;stroke-width:0.5;" x1="1503.87" x2="1674.1229" y1="220.1869" y2="220.1869"/><ellipse cx="1513.87" cy="233.8353" fill="#84BE84" rx="3" ry="3" style="stroke:#038048;stroke-width:1.0;"/><text fill="#000000" font-family="sans-serif" font-size="14" lengthAdjust="spacing" textLength="97.8223" x="1522.87" y="237.182">setLimit(limit)</text><ellipse cx="1513.87" cy="250.1322" fill="#84BE84" rx="3" ry="3" style="stroke:#038048;stroke-width:1.0;"/><text fill="#000000" font-family="sans-serif" font-size="14" lengthAdjust="spacing" textLength="68.6191" x="1522.87" y="253.4789">getLimit()</text></g><!--reverse link AbstractRateLimiter to FixedWindow--><g id="link_AbstractRateLimiter_FixedWindow"><path codeLine="105" d="M1484.497,215.4834 C1351.897,219.1934 1123.51,230.65 1045,268.78 C1038.5225,271.925 1032.1494,275.3998 1025.8923,279.1518 C1022.7638,281.0278 1019.6642,282.9732 1016.5952,284.9813 C1015.8279,285.4833 1015.0626,285.9893 1014.2991,286.499 C1013.9174,286.7539 1013.5362,325.6035 1013.1554,325.8603 " fill="none" id="AbstractRateLimiter-backto-FixedWindow" style="stroke:#181818;stroke-width:1.0;"/><polygon fill="none" points="1502.49,214.98,1484.3292,209.4858,1484.6648,221.4811,1502.49,214.98" style="stroke:#181818;stroke-width:1.0;"/></g><!--reverse link AbstractRateLimiter to LeakyBucket--><g id="link_AbstractRateLimiter_LeakyBucket"><path codeLine="106" d="M1589,279.11 C1589,281.487 1589,279.6319 1589,282.0858 C1589,282.6993 1589,321.9088 1589,322.5267 " fill="none" id="AbstractRateLimiter-backto-LeakyBucket" style="stroke:#181818;stroke-width:1.0;"/><polygon fill="none" points="1589,261.11,1583,279.11,1595,279.11,1589,261.11" style="stroke:#181818;stroke-width:1.0;"/></g><!--reverse link AbstractRateLimiter to SlidingWindow--><g id="link_AbstractRateLimiter_SlidingWindow"><path codeLine="107" d="M1693.3728,215.5183 C1826.1128,219.2683 2055.18,230.78 2134,268.78 C2140.5206,271.9231 2146.9391,275.3963 2153.2434,279.1469 C2156.3956,281.0222 2159.5192,282.9669 2162.6127,284.9744 C2163.3861,285.4762 2164.1576,285.982 2164.9272,286.4917 " fill="none" id="AbstractRateLimiter-backto-SlidingWindow" style="stroke:#181818;stroke-width:1.0;"/><polygon fill="none" points="1675.38,215.01,1693.2034,221.5159,1693.5423,209.5207,1675.38,215.01" style="stroke:#181818;stroke-width:1.0;"/></g><!--link FixedWindow to FixedWindow_StorageInterface--><g id="link_FixedWindow_FixedWindow_StorageInterface"><path codeLine="108" d="M861.59,459.82 C857.36,463.15 825.9015,487.9549 791.0515,515.4349 " fill="none" id="FixedWindow-to-FixedWindow_StorageInterface" style="stroke:#181818;stroke-width:1.0;stroke-dasharray:7.0,7.0;"/><polygon fill="#181818" points="786.34,519.15,795.8839,516.7183,790.2662,516.0541,790.9305,510.4364,786.34,519.15" style="stroke:#181818;stroke-width:1.0;"/></g><!--reverse link FixedWindow_StorageInterface to FixedWindow_MemoryStorage--><g id="link_FixedWindow_StorageInterface_FixedWindow_MemoryStorage"><path codeLine="109" d="M730.2997,645.0862 C733.6697,666.2562 734.75,672.98 738.25,694.88 " fill="none" id="FixedWindow_StorageInterface-backto-FixedWindow_MemoryStorage" style="stroke:#181818;stroke-width:1.0;"/><polygon fill="none" points="727.47,627.31,724.3744,646.0294,736.2251,644.1429,727.47,627.31" style="stroke:#181818;stroke-width:1.0;"/></g><!--reverse link FixedWindow_StorageInterface to FixedWindow_RedisStorage--><g id="link_FixedWindow_StorageInterface_FixedWindow_RedisStorage"><path codeLine="110" d="M565.2809,633.9464 C517.6709,652.4364 480.32,666.95 429.83,686.56 " fill="none" id="FixedWindow_StorageInterface-backto-FixedWindow_RedisStorage" style="stroke:#181818;stroke-width:1.0;"/><polygon fill="none" points="582.06,627.43,563.1088,628.3534,567.4531,639.5394,582.06,627.43" style="stroke:#181818;stroke-width:1.0;"/></g><!--link LeakyBucket to LeakyBucket_StorageInterface--><g id="link_LeakyBucket_LeakyBucket_StorageInterface"><path codeLine="111" d="M1589,459.82 C1589,463.15 1589,485.67 1589,513.15 " fill="none" id="LeakyBucket-to-LeakyBucket_StorageInterface" style="stroke:#181818;stroke-width:1.0;stroke-dasharray:7.0,7.0;"/><polygon fill="#181818" points="1589,519.15,1593,510.15,1589,514.15,1585,510.15,1589,519.15" style="stroke:#181818;stroke-width:1.0;"/></g><!--reverse link LeakyBucket_StorageInterface to LeakyBucket_MemoryStorage--><g id="link_LeakyBucket_StorageInterface_LeakyBucket_MemoryStorage"><path codeLine="112" d="M1678.0975,637.7578 C1707.7975,658.9278 1727.51,672.98 1758.24,694.88 " fill="none" id="LeakyBucket_StorageInterface-backto-LeakyBucket_MemoryStorage" style="stroke:#181818;stroke-width:1.0;"/><polygon fill="none" points="1663.44,627.31,1674.6149,642.6437,1681.5801,632.872,1663.44,627.31" style="stroke:#181818;stroke-width:1.0;"/></g><!--reverse link LeakyBucket_StorageInterface to LeakyBucket_RedisStorage--><g id="link_LeakyBucket_StorageInterface_LeakyBucket_RedisStorage"><path codeLine="113" d="M1493.7045,637.2365 C1465.6445,655.7865 1448.73,666.96 1418.96,686.64 " fill="none" id="LeakyBucket_StorageInterface-backto-LeakyBucket_RedisStorage" style="stroke:#181818;stroke-width:1.0;"/><polygon fill="none" points="1508.72,627.31,1490.3957,632.2313,1497.0133,642.2417,1508.72,627.31" style="stroke:#181818;stroke-width:1.0;"/></g><!--reverse link RateLimiterInterface to AbstractRateLimiter--><g id="link_RateLimiterInterface_AbstractRateLimiter"><path codeLine="114" d="M1589,122.18 C1589,141.02 1589,144.63 1589,163.49 " fill="none" id="RateLimiterInterface-backto-AbstractRateLimiter" style="stroke:#181818;stroke-width:1.0;"/><polygon fill="none" points="1589,104.18,1583,122.18,1595,122.18,1589,104.18" style="stroke:#181818;stroke-width:1.0;"/></g><!--link SlidingWindow to SlidingWindow_StorageInterface--><g id="link_SlidingWindow_SlidingWindow_StorageInterface"><path codeLine="115" d="M2319.42,459.82 C2323.73,463.15 2355.9214,488.0025 2391.5014,515.4825 " fill="none" id="SlidingWindow-to-SlidingWindow_StorageInterface" style="stroke:#181818;stroke-width:1.0;stroke-dasharray:7.0,7.0;"/><polygon fill="#181818" points="2396.25,519.15,2391.5721,510.483,2392.2928,516.0937,2386.6821,516.8144,2396.25,519.15" style="stroke:#181818;stroke-width:1.0;"/></g><!--reverse link SlidingWindow_StorageInterface to SlidingWindow_MemoryStorage--><g id="link_SlidingWindow_StorageInterface_SlidingWindow_MemoryStorage"><path codeLine="116" d="M2611.2731,634.2619 C2656.3431,652.7519 2690.93,666.95 2738.72,686.56 " fill="none" id="SlidingWindow_StorageInterface-backto-SlidingWindow_MemoryStorage" style="stroke:#181818;stroke-width:1.0;"/><polygon fill="none" points="2594.62,627.43,2608.9958,639.813,2613.5504,628.7109,2594.62,627.43" style="stroke:#181818;stroke-width:1.0;"/></g><!--reverse link SlidingWindow_StorageInterface to SlidingWindow_RedisStorage--><g id="link_SlidingWindow_StorageInterface_SlidingWindow_RedisStorage"><path codeLine="117" d="M2444.1147,644.5649 C2438.6047,663.1149 2437.46,666.96 2431.61,686.64 " fill="none" id="SlidingWindow_StorageInterface-backto-SlidingWindow_RedisStorage" style="stroke:#181818;stroke-width:1.0;"/><polygon fill="none" points="2449.24,627.31,2438.3631,642.8565,2449.8663,646.2733,2449.24,627.31" style="stroke:#181818;stroke-width:1.0;"/></g><!--SRC=[vLTBZzem4BxtLrXmoQeBlQzGgbPgfQhR2npsKWavYQ4MYODiezsqtVzUFn8oJXm3RU1If20odjVtUMPiA9E4Rt1Aq6I99Nca1LM2BurqWh10lWNqwmrIdxTOIbBiPRGZrJtAjTATNTWIkIG5feooRNyrpGdcMgpVNzMJvbW8DFbCNqZsH5bMFdzdYoGsxyWA45TvM2-4BzubiKaEMDGvJOKiETuIz81MzjSnQxl-RBHNzATMeKpQbDRhj6H2yaCgezh3FMfLtVp7W6srduuHebee766RWLsU9WUQPrz9vM7laU1TzV6GxeWqx9btP0L-ze35kUmPFwTuqqfNOKoHeyinqW600oqwpSygfvcA0kghbWGhpB7wxsliGwBonwa4Gy6mv94tN9di50tlZpoey4Odwi2omYRY7gSxpJ5iSM_7qtQ8TNV3x78xjJObHytM6K14e8DG8uOo97-ueJGUIRRLt3Thrjr0TIeA1sKfuD-pNyU5pbQzck-QvoN9gAY3M135FYS5OLAOJ7lnDJHZr03qvmtzjZbpO_XW7JH2MAr6uMvSYDz8KVBgKeoKpGfZ6CRfE3y2dMPOOeKJSuwhXQgRU1H8i5hTSJ4mFyQhMDTxlsQTzK3LzgSDd4o3h7YLRbNNBhPHAljMD8nU-ouNvrH_smFn3T2hw1kQAp2VNlPKSUwtwpOJl9zuholZDHBqtMyZi7fX4xKtbU6ZkwFrB_sJcpjVqk2mU0Cz185ThOD6vk1aymoI46WWICGvxLFemoQ-Fchz-2vNYz-p6JpnGce0MqZDcI5A4Tw6vlCuUFznrVizqatNvVXYQrYgoXWshyuqrAwk-a2imMgusBgJgVVFj37oR8lITyztZIryedTD1Z8C71T_vG6Y_0C0]--></g></svg>